<?xml version="1.0" encoding="UTF-8" standalone="no"?>
<svg width="126px" height="54px" viewBox="0 0 126 54" version="1.1" xmlns="http://www.w3.org/2000/svg" xmlns:xlink="http://www.w3.org/1999/xlink" xmlns:sketch="http://www.bohemiancoding.com/sketch/ns">
    <!-- Generator: Sketch 3.4.2 (15857) - http://www.bohemiancoding.com/sketch -->
    <title>logo</title>
    <desc>Created with Sketch.</desc>
    <defs></defs>
    <g id="Page-1" stroke="none" stroke-width="1" fill="none" fill-rule="evenodd" sketch:type="MSPage">
        <g id="Sign-In" sketch:type="MSArtboardGroup" transform="translate(-144.000000, -69.000000)">
            <g id="logo" sketch:type="MSLayerGroup" transform="translate(144.000000, 69.000000)">
                <g id="Imported-Layers" sketch:type="MSShapeGroup">
                    <path d="M78.98175,0.33 C70.86675,0.33 64.28775,6.90825 64.28775,15.02325 C64.28775,23.1375 70.86675,29.71575 78.98175,29.71575 C87.096,29.71575 93.67425,23.1375 93.67425,15.02325 C93.67425,6.90825 87.096,0.33 78.98175,0.33 L78.98175,0.33 Z M78.98175,22.94175 C74.607,22.94175 71.0625,19.3965 71.0625,15.02325 C71.0625,10.64925 74.607,7.104 78.98175,7.104 C83.3535,7.104 86.90025,10.64925 86.90025,15.02325 C86.90025,19.3965 83.3535,22.94175 78.98175,22.94175 L78.98175,22.94175 Z" id="Fill-1" fill="#FED02F"></path>
                    <path d="M45.1155,0.33 C37.0005,0.33 30.42225,6.90825 30.42225,15.02325 C30.42225,23.1375 37.0005,29.71575 45.1155,29.71575 C53.2305,29.71575 59.80875,23.1375 59.80875,15.02325 C59.80875,6.90825 53.2305,0.33 45.1155,0.33 L45.1155,0.33 Z M45.1155,22.94175 C40.7415,22.94175 37.197,19.3965 37.197,15.02325 C37.197,10.64925 40.7415,7.104 45.1155,7.104 C49.488,7.104 53.034,10.64925 53.034,15.02325 C53.034,19.3965 49.488,22.94175 45.1155,22.94175 L45.1155,22.94175 Z" id="Fill-2" fill="#FFFFFF"></path>
                    <path d="M19.1685,1.62 L19.1685,11.6355 L7.1805,11.6355 L7.1805,1.62 L0.40575,1.62 L0.40575,28.42575 L7.1805,28.42575 L7.1805,18.41025 L19.1685,18.41025 L19.1685,28.42575 L25.94325,28.42575 L25.94325,1.62 L19.1685,1.62" id="Fill-3" fill="#FFFFFF"></path>
                    <path d="M111.48675,1.149 L98.39325,1.149 L98.39325,28.89675 L111.48675,28.89675 C119.14875,28.89675 125.36025,22.68525 125.36025,15.02325 C125.36025,7.3605 119.14875,1.149 111.48675,1.149 L111.48675,1.149 Z M111.48675,22.5 L104.79,22.5 L104.79,7.54575 L111.48675,7.54575 C115.61475,7.54575 118.9635,10.893 118.9635,15.02325 C118.9635,19.15275 115.61475,22.5 111.48675,22.5 L111.48675,22.5 Z" id="Fill-4" fill="#FFFFFF"></path>
                </g>
                <path d="M5.015,53 L5.015,43.662 L8.697,43.662 C9.42500364,43.662 10.0946636,43.7739989 10.706,43.998 C11.3173364,44.2220011 11.8399978,44.536998 12.274,44.943 C12.7080022,45.349002 13.0463321,45.8413304 13.289,46.42 C13.5316679,46.9986696 13.653,47.6379965 13.653,48.338 C13.653,49.0380035 13.5316679,49.6749971 13.289,50.249 C13.0463321,50.8230029 12.7080022,51.312998 12.274,51.719 C11.8399978,52.125002 11.3173364,52.4399989 10.706,52.664 C10.0946636,52.8880011 9.42500364,53 8.697,53 L5.015,53 Z M8.697,51.25 C9.15433562,51.25 9.56499818,51.1730008 9.929,51.019 C10.2930018,50.8649992 10.6009987,50.6550013 10.853,50.389 C11.1050013,50.1229987 11.2963327,49.8126684 11.427,49.458 C11.5576673,49.1033316 11.623,48.730002 11.623,48.338 C11.623,47.9273313 11.5600006,47.5423351 11.434,47.183 C11.3079994,46.8236649 11.1236679,46.5133346 10.881,46.252 C10.6383321,45.9906654 10.3326685,45.7853341 9.964,45.636 C9.59533149,45.4866659 9.17300238,45.412 8.697,45.412 L7.003,45.412 L7.003,51.25 L8.697,51.25 Z M15.067,53 L15.067,43.662 L18.749,43.662 C19.4770036,43.662 20.1466636,43.7739989 20.758,43.998 C21.3693364,44.2220011 21.8919978,44.536998 22.326,44.943 C22.7600022,45.349002 23.0983321,45.8413304 23.341,46.42 C23.5836679,46.9986696 23.705,47.6379965 23.705,48.338 C23.705,49.0380035 23.5836679,49.6749971 23.341,50.249 C23.0983321,50.8230029 22.7600022,51.312998 22.326,51.719 C21.8919978,52.125002 21.3693364,52.4399989 20.758,52.664 C20.1466636,52.8880011 19.4770036,53 18.749,53 L15.067,53 Z M18.749,51.25 C19.2063356,51.25 19.6169982,51.1730008 19.981,51.019 C20.3450018,50.8649992 20.6529987,50.6550013 20.905,50.389 C21.1570013,50.1229987 21.3483327,49.8126684 21.479,49.458 C21.6096673,49.1033316 21.675,48.730002 21.675,48.338 C21.675,47.9273313 21.6120006,47.5423351 21.486,47.183 C21.3599994,46.8236649 21.1756679,46.5133346 20.933,46.252 C20.6903321,45.9906654 20.3846685,45.7853341 20.016,45.636 C19.6473315,45.4866659 19.2250024,45.412 18.749,45.412 L17.055,45.412 L17.055,51.25 L18.749,51.25 Z M25.119,53 L25.119,43.662 L30.033,43.662 C30.4810022,43.662 30.8729983,43.7273327 31.209,43.858 C31.5450017,43.9886673 31.8249989,44.1636656 32.049,44.383 C32.2730011,44.6023344 32.4409994,44.8566652 32.553,45.146 C32.6650006,45.4353348 32.721,45.7339985 32.721,46.042 C32.721,46.3406682 32.6790004,46.6113321 32.595,46.854 C32.5109996,47.0966679 32.3943341,47.3089991 32.245,47.491 C32.0956659,47.6730009 31.9253343,47.8223327 31.734,47.939 C31.5426657,48.0556672 31.3350011,48.1373331 31.111,48.184 C31.3630013,48.2213335 31.5963323,48.307666 31.811,48.443 C32.0256677,48.578334 32.2146658,48.7463323 32.378,48.947 C32.5413341,49.1476677 32.6696662,49.3809987 32.763,49.647 C32.8563338,49.9130013 32.903,50.1906652 32.903,50.48 C32.903,50.8346684 32.8446672,51.1636651 32.728,51.467 C32.6113327,51.7703348 32.4386678,52.0363322 32.21,52.265 C31.9813322,52.4936678 31.6990017,52.6733327 31.363,52.804 C31.0269983,52.9346673 30.6350022,53 30.187,53 L25.119,53 Z M29.599,47.4 C29.9350017,47.4 30.200999,47.3066676 30.397,47.12 C30.593001,46.9333324 30.691,46.6906682 30.691,46.392 C30.691,46.0933318 30.593001,45.8483343 30.397,45.657 C30.200999,45.4656657 29.9350017,45.37 29.599,45.37 L27.107,45.37 L27.107,47.4 L29.599,47.4 Z M29.669,51.278 C30.0516686,51.278 30.3479989,51.1823343 30.558,50.991 C30.768001,50.7996657 30.873,50.5360017 30.873,50.2 C30.873,49.9013318 30.7703344,49.6446677 30.565,49.43 C30.3596656,49.2153323 30.061002,49.108 29.669,49.108 L27.107,49.108 L27.107,51.278 L29.669,51.278 Z M41.177,53.168 C40.3556626,53.168 39.6510029,53.0303347 39.063,52.755 C38.4749971,52.4796653 37.985002,52.1226689 37.593,51.684 L38.279,50.802 C38.4283341,50.9700008 38.6056656,51.1356658 38.811,51.299 C39.0163344,51.4623341 39.2426654,51.6046661 39.49,51.726 C39.7373346,51.8473339 40.0056652,51.945333 40.295,52.02 C40.5843348,52.094667 40.8923317,52.132 41.219,52.132 C41.6390021,52.132 41.9889986,52.0806672 42.269,51.978 C42.5490014,51.8753328 42.7729992,51.7470008 42.941,51.593 C43.1090008,51.4389992 43.230333,51.2663343 43.305,51.075 C43.379667,50.8836657 43.417,50.6993342 43.417,50.522 C43.417,50.2233318 43.3376675,49.976001 43.179,49.78 C43.0203325,49.583999 42.8126679,49.418334 42.556,49.283 C42.299332,49.147666 42.005335,49.0356671 41.674,48.947 C41.342665,48.8583329 41.0020017,48.7650005 40.652,48.667 C40.3019982,48.5689995 39.961335,48.4593339 39.63,48.338 C39.298665,48.2166661 39.0046679,48.0603343 38.748,47.869 C38.491332,47.6776657 38.2836675,47.4420014 38.125,47.162 C37.9663325,46.8819986 37.887,46.5320021 37.887,46.112 C37.887,45.7293314 37.9686658,45.3793349 38.132,45.062 C38.2953341,44.7446651 38.5193319,44.4716678 38.804,44.243 C39.0886681,44.0143322 39.426998,43.8370006 39.819,43.711 C40.211002,43.5849994 40.6356644,43.522 41.093,43.522 C41.8116703,43.522 42.4463306,43.6339989 42.997,43.858 C43.5476694,44.0820011 44.018998,44.4039979 44.411,44.824 L43.711,45.678 C43.3563316,45.285998 42.945669,45.0013342 42.479,44.824 C42.012331,44.6466658 41.5223359,44.558 41.009,44.558 C40.4489972,44.558 39.9893351,44.693332 39.63,44.964 C39.2706649,45.234668 39.091,45.5939978 39.091,46.042 C39.091,46.3033346 39.1703325,46.5179992 39.329,46.686 C39.4876675,46.8540008 39.695332,46.9986661 39.952,47.12 C40.2086679,47.2413339 40.502665,47.3463329 40.834,47.435 C41.165335,47.5236671 41.5059982,47.6169995 41.856,47.715 C42.2060017,47.8130005 42.546665,47.9273327 42.878,48.058 C43.209335,48.1886673 43.503332,48.3566656 43.76,48.562 C44.0166679,48.7673344 44.2243325,49.0193318 44.383,49.318 C44.5416675,49.6166682 44.621,49.9853311 44.621,50.424 C44.621,50.7600017 44.5603339,51.093665 44.439,51.425 C44.3176661,51.756335 44.1193347,52.050332 43.844,52.307 C43.5686653,52.5636679 43.2116689,52.7713325 42.773,52.93 C42.3343311,53.0886675 41.8023365,53.168 41.177,53.168 L41.177,53.168 Z M50.543,53 L50.543,52.23 C49.9736638,52.8553365 49.2270046,53.168 48.303,53.168 C48.0136652,53.168 47.7290014,53.1213338 47.449,53.028 C47.1689986,52.9346662 46.9170011,52.7923343 46.693,52.601 C46.4689989,52.4096657 46.2870007,52.1740014 46.147,51.894 C46.0069993,51.6139986 45.937,51.2920018 45.937,50.928 C45.937,50.5546648 46.0069993,50.2280014 46.147,49.948 C46.2870007,49.6679986 46.4689989,49.4346676 46.693,49.248 C46.9170011,49.0613324 47.1689986,48.9236671 47.449,48.835 C47.7290014,48.7463329 48.0136652,48.702 48.303,48.702 C48.769669,48.702 49.1919981,48.7766659 49.57,48.926 C49.9480019,49.0753341 50.272332,49.3086651 50.543,49.626 L50.543,48.408 C50.543,47.9506644 50.3820016,47.5983346 50.06,47.351 C49.7379984,47.1036654 49.3296691,46.98 48.835,46.98 C48.0416627,46.98 47.3510029,47.2926635 46.763,47.918 L46.273,47.19 C46.9916703,46.4433296 47.8923279,46.07 48.975,46.07 C49.3296684,46.07 49.6656651,46.1119996 49.983,46.196 C50.3003349,46.2800004 50.5779988,46.4129991 50.816,46.595 C51.0540012,46.7770009 51.2429993,47.0126652 51.383,47.302 C51.5230007,47.5913348 51.593,47.9413313 51.593,48.352 L51.593,53 L50.543,53 Z M48.681,52.412 C49.0543352,52.412 49.406665,52.3420007 49.738,52.202 C50.069335,52.0619993 50.3376656,51.8520014 50.543,51.572 L50.543,50.298 C50.3376656,50.0179986 50.069335,49.8080007 49.738,49.668 C49.406665,49.5279993 49.0543352,49.458 48.681,49.458 C48.1863309,49.458 47.7850015,49.5956653 47.477,49.871 C47.1689985,50.1463347 47.015,50.5033311 47.015,50.942 C47.015,51.3713355 47.1689985,51.7236653 47.477,51.999 C47.7850015,52.2743347 48.1863309,52.412 48.681,52.412 L48.681,52.412 Z M58.257,53 L58.257,48.576 C58.257,47.9786637 58.1193347,47.5680011 57.844,47.344 C57.5686653,47.1199989 57.2023356,47.008 56.745,47.008 C56.5396656,47.008 56.339001,47.0359997 56.143,47.092 C55.946999,47.1480003 55.7603342,47.2249995 55.583,47.323 C55.4056658,47.4210005 55.2446674,47.5329994 55.1,47.659 C54.9553326,47.7850006 54.8363338,47.9179993 54.743,48.058 L54.743,53 L53.693,53 L53.693,46.238 L54.743,46.238 L54.743,47.218 C54.8643339,47.0779993 55.0089992,46.940334 55.177,46.805 C55.3450008,46.669666 55.5339989,46.5460006 55.744,46.434 C55.954001,46.3219994 56.1779988,46.2333337 56.416,46.168 C56.6540012,46.1026663 56.8989987,46.07 57.151,46.07 C58.5883405,46.07 59.307,46.7979927 59.307,48.254 L59.307,53 L58.257,53 Z M65.061,53 L65.061,43.662 L71.179,43.662 L71.179,44.698 L66.223,44.698 L66.223,47.708 L71.081,47.708 L71.081,48.744 L66.223,48.744 L66.223,53 L65.061,53 Z M72.719,53 L72.719,46.238 L73.769,46.238 L73.769,47.33 C74.039668,46.9753316 74.3663314,46.6813345 74.749,46.448 C75.1316686,46.2146655 75.556331,46.098 76.023,46.098 L76.023,47.176 C75.8923327,47.1479999 75.7523341,47.134 75.603,47.134 C75.4443325,47.134 75.2740009,47.164333 75.092,47.225 C74.9099991,47.285667 74.7326675,47.3673328 74.56,47.47 C74.3873325,47.5726672 74.2310007,47.6869994 74.091,47.813 C73.9509993,47.9390006 73.843667,48.0719993 73.769,48.212 L73.769,53 L72.719,53 Z M81.567,53 L81.567,52.23 C80.9976638,52.8553365 80.2510046,53.168 79.327,53.168 C79.0376652,53.168 78.7530014,53.1213338 78.473,53.028 C78.1929986,52.9346662 77.9410011,52.7923343 77.717,52.601 C77.4929989,52.4096657 77.3110007,52.1740014 77.171,51.894 C77.0309993,51.6139986 76.961,51.2920018 76.961,50.928 C76.961,50.5546648 77.0309993,50.2280014 77.171,49.948 C77.3110007,49.6679986 77.4929989,49.4346676 77.717,49.248 C77.9410011,49.0613324 78.1929986,48.9236671 78.473,48.835 C78.7530014,48.7463329 79.0376652,48.702 79.327,48.702 C79.793669,48.702 80.2159981,48.7766659 80.594,48.926 C80.9720019,49.0753341 81.296332,49.3086651 81.567,49.626 L81.567,48.408 C81.567,47.9506644 81.4060016,47.5983346 81.084,47.351 C80.7619984,47.1036654 80.3536691,46.98 79.859,46.98 C79.0656627,46.98 78.3750029,47.2926635 77.787,47.918 L77.297,47.19 C78.0156703,46.4433296 78.9163279,46.07 79.999,46.07 C80.3536684,46.07 80.6896651,46.1119996 81.007,46.196 C81.3243349,46.2800004 81.6019988,46.4129991 81.84,46.595 C82.0780012,46.7770009 82.2669993,47.0126652 82.407,47.302 C82.5470007,47.5913348 82.617,47.9413313 82.617,48.352 L82.617,53 L81.567,53 Z M79.705,52.412 C80.0783352,52.412 80.430665,52.3420007 80.762,52.202 C81.093335,52.0619993 81.3616656,51.8520014 81.567,51.572 L81.567,50.298 C81.3616656,50.0179986 81.093335,49.8080007 80.762,49.668 C80.430665,49.5279993 80.0783352,49.458 79.705,49.458 C79.2103309,49.458 78.8090015,49.5956653 78.501,49.871 C78.1929985,50.1463347 78.039,50.5033311 78.039,50.942 C78.039,51.3713355 78.1929985,51.7236653 78.501,51.999 C78.8090015,52.2743347 79.2103309,52.412 79.705,52.412 L79.705,52.412 Z M89.281,53 L89.281,48.576 C89.281,47.9786637 89.1433347,47.5680011 88.868,47.344 C88.5926653,47.1199989 88.2263356,47.008 87.769,47.008 C87.5636656,47.008 87.363001,47.0359997 87.167,47.092 C86.970999,47.1480003 86.7843342,47.2249995 86.607,47.323 C86.4296658,47.4210005 86.2686674,47.5329994 86.124,47.659 C85.9793326,47.7850006 85.8603338,47.9179993 85.767,48.058 L85.767,53 L84.717,53 L84.717,46.238 L85.767,46.238 L85.767,47.218 C85.8883339,47.0779993 86.0329992,46.940334 86.201,46.805 C86.3690008,46.669666 86.5579989,46.5460006 86.768,46.434 C86.978001,46.3219994 87.2019988,46.2333337 87.44,46.168 C87.6780012,46.1026663 87.9229987,46.07 88.175,46.07 C89.6123405,46.07 90.331,46.7979927 90.331,48.254 L90.331,53 L89.281,53 Z M95.413,53.168 C94.9089975,53.168 94.4493354,53.0770009 94.034,52.895 C93.6186646,52.7129991 93.2640015,52.4633349 92.97,52.146 C92.6759985,51.8286651 92.4473341,51.4530022 92.284,51.019 C92.1206658,50.5849978 92.039,50.1160025 92.039,49.612 C92.039,49.1079975 92.1206658,48.6413355 92.284,48.212 C92.4473341,47.7826645 92.6759985,47.4093349 92.97,47.092 C93.2640015,46.7746651 93.6186646,46.5250009 94.034,46.343 C94.4493354,46.1609991 94.9089975,46.07 95.413,46.07 C96.0290031,46.07 96.5306647,46.1819989 96.918,46.406 C97.3053353,46.6300011 97.6296654,46.9099983 97.891,47.246 L97.191,47.89 C96.9669989,47.5819985 96.7126681,47.3580007 96.428,47.218 C96.1433319,47.0779993 95.8236684,47.008 95.469,47.008 C95.1049982,47.008 94.7806681,47.0733327 94.496,47.204 C94.2113319,47.3346673 93.9663344,47.5166655 93.761,47.75 C93.5556656,47.9833345 93.3993339,48.2586651 93.292,48.576 C93.1846661,48.8933349 93.131,49.2386648 93.131,49.612 C93.131,49.9853352 93.1846661,50.3329984 93.292,50.655 C93.3993339,50.9770016 93.5556656,51.2546655 93.761,51.488 C93.9663344,51.7213345 94.2113319,51.9033327 94.496,52.034 C94.7806681,52.1646673 95.1049982,52.23 95.469,52.23 C96.1783369,52.23 96.7523311,51.9360029 97.191,51.348 L97.891,51.992 C97.6296654,52.3280017 97.3053353,52.6079989 96.918,52.832 C96.5306647,53.0560011 96.0290031,53.168 95.413,53.168 L95.413,53.168 Z M99.879,45.272 C99.6923324,45.272 99.5290007,45.204334 99.389,45.069 C99.2489993,44.933666 99.179,44.768001 99.179,44.572 C99.179,44.375999 99.2489993,44.2080007 99.389,44.068 C99.5290007,43.9279993 99.6923324,43.858 99.879,43.858 C100.075001,43.858 100.242999,43.9279993 100.383,44.068 C100.523001,44.2080007 100.593,44.375999 100.593,44.572 C100.593,44.768001 100.523001,44.933666 100.383,45.069 C100.242999,45.204334 100.075001,45.272 99.879,45.272 L99.879,45.272 Z M99.361,53 L99.361,46.238 L100.411,46.238 L100.411,53 L99.361,53 Z M104.653,53.168 C104.092997,53.168 103.584336,53.0816675 103.127,52.909 C102.669664,52.7363325 102.268335,52.4680018 101.923,52.104 L102.469,51.348 C102.693001,51.6093346 103.003331,51.8356657 103.4,52.027 C103.796669,52.2183343 104.228331,52.314 104.695,52.314 C105.217669,52.314 105.614332,52.2043344 105.885,51.985 C106.155668,51.7656656 106.291,51.4880017 106.291,51.152 C106.291,50.881332 106.188334,50.6736674 105.983,50.529 C105.777666,50.3843326 105.518668,50.2653338 105.206,50.172 C104.893332,50.0786662 104.557335,49.9923337 104.198,49.913 C103.838665,49.8336663 103.502668,49.7216674 103.19,49.577 C102.877332,49.4323326 102.618334,49.2410012 102.413,49.003 C102.207666,48.7649988 102.105,48.4360021 102.105,48.016 C102.105,47.7546654 102.160999,47.5050012 102.273,47.267 C102.385001,47.0289988 102.548332,46.8213342 102.763,46.644 C102.977668,46.4666658 103.241332,46.3266672 103.554,46.224 C103.866668,46.1213328 104.223665,46.07 104.625,46.07 C105.20367,46.07 105.698331,46.1656657 106.109,46.357 C106.519669,46.5483343 106.860332,46.779332 107.131,47.05 L106.641,47.778 C106.435666,47.5353321 106.158002,47.3323341 105.808,47.169 C105.457998,47.0056658 105.063669,46.924 104.625,46.924 C104.158331,46.924 103.792001,47.0266656 103.526,47.232 C103.259999,47.4373344 103.127,47.6893318 103.127,47.988 C103.127,48.2306679 103.229666,48.4173327 103.435,48.548 C103.640334,48.6786673 103.899332,48.7883329 104.212,48.877 C104.524668,48.9656671 104.860665,49.0496663 105.22,49.129 C105.579335,49.2083337 105.915332,49.3226659 106.228,49.472 C106.540668,49.6213341 106.799666,49.824332 107.005,50.081 C107.210334,50.3376679 107.313,50.6853311 107.313,51.124 C107.313,51.4040014 107.257001,51.6699987 107.145,51.922 C107.032999,52.1740013 106.865001,52.3909991 106.641,52.573 C106.416999,52.7550009 106.139335,52.8996661 105.808,53.007 C105.476665,53.1143339 105.091669,53.168 104.653,53.168 L104.653,53.168 Z M112.003,53.168 C111.498997,53.168 111.039335,53.0770009 110.624,52.895 C110.208665,52.7129991 109.854001,52.4633349 109.56,52.146 C109.265999,51.8286651 109.037334,51.4530022 108.874,51.019 C108.710666,50.5849978 108.629,50.1160025 108.629,49.612 C108.629,49.1079975 108.710666,48.6413355 108.874,48.212 C109.037334,47.7826645 109.265999,47.4093349 109.56,47.092 C109.854001,46.7746651 110.208665,46.5250009 110.624,46.343 C111.039335,46.1609991 111.498997,46.07 112.003,46.07 C112.619003,46.07 113.120665,46.1819989 113.508,46.406 C113.895335,46.6300011 114.219665,46.9099983 114.481,47.246 L113.781,47.89 C113.556999,47.5819985 113.302668,47.3580007 113.018,47.218 C112.733332,47.0779993 112.413668,47.008 112.059,47.008 C111.694998,47.008 111.370668,47.0733327 111.086,47.204 C110.801332,47.3346673 110.556334,47.5166655 110.351,47.75 C110.145666,47.9833345 109.989334,48.2586651 109.882,48.576 C109.774666,48.8933349 109.721,49.2386648 109.721,49.612 C109.721,49.9853352 109.774666,50.3329984 109.882,50.655 C109.989334,50.9770016 110.145666,51.2546655 110.351,51.488 C110.556334,51.7213345 110.801332,51.9033327 111.086,52.034 C111.370668,52.1646673 111.694998,52.23 112.059,52.23 C112.768337,52.23 113.342331,51.9360029 113.781,51.348 L114.481,51.992 C114.219665,52.3280017 113.895335,52.6079989 113.508,52.832 C113.120665,53.0560011 112.619003,53.168 112.003,53.168 L112.003,53.168 Z M118.905,53.168 C118.391664,53.168 117.927335,53.0746676 117.512,52.888 C117.096665,52.7013324 116.744335,52.4470016 116.455,52.125 C116.165665,51.8029984 115.944001,51.4273355 115.79,50.998 C115.635999,50.5686645 115.559,50.1066691 115.559,49.612 C115.559,49.1266642 115.635999,48.6670022 115.79,48.233 C115.944001,47.7989978 116.165665,47.4233349 116.455,47.106 C116.744335,46.7886651 117.096665,46.5366676 117.512,46.35 C117.927335,46.1633324 118.391664,46.07 118.905,46.07 C119.418336,46.07 119.882665,46.1633324 120.298,46.35 C120.713335,46.5366676 121.065665,46.7886651 121.355,47.106 C121.644335,47.4233349 121.865999,47.7989978 122.02,48.233 C122.174001,48.6670022 122.251,49.1266642 122.251,49.612 C122.251,50.1066691 122.174001,50.5686645 122.02,50.998 C121.865999,51.4273355 121.644335,51.8029984 121.355,52.125 C121.065665,52.4470016 120.713335,52.7013324 120.298,52.888 C119.882665,53.0746676 119.418336,53.168 118.905,53.168 L118.905,53.168 Z M118.905,52.23 C119.269002,52.23 119.588665,52.1576674 119.864,52.013 C120.139335,51.8683326 120.372666,51.6770012 120.564,51.439 C120.755334,51.2009988 120.9,50.9233349 120.998,50.606 C121.096,50.2886651 121.145,49.9573351 121.145,49.612 C121.145,49.2666649 121.096,48.9376682 120.998,48.625 C120.9,48.3123318 120.755334,48.0370012 120.564,47.799 C120.372666,47.5609988 120.139335,47.3696674 119.864,47.225 C119.588665,47.0803326 119.269002,47.008 118.905,47.008 C118.540998,47.008 118.219001,47.0803326 117.939,47.225 C117.658999,47.3696674 117.423334,47.5609988 117.232,47.799 C117.040666,48.0370012 116.896,48.3123318 116.798,48.625 C116.7,48.9376682 116.651,49.2666649 116.651,49.612 C116.651,49.9573351 116.7,50.2886651 116.798,50.606 C116.896,50.9233349 117.040666,51.2009988 117.232,51.439 C117.423334,51.6770012 117.658999,51.8683326 117.939,52.013 C118.219001,52.1576674 118.540998,52.23 118.905,52.23 L118.905,52.23 Z" id="DDB-San-Francisco" fill="#FFFFFF" sketch:type="MSShapeGroup"></path>
            </g>
        </g>
    </g>
</svg>