<?xml version="1.0" encoding="UTF-8" standalone="no"?>
<svg width="109px" height="45px" viewBox="0 0 109 45" version="1.1" xmlns="http://www.w3.org/2000/svg" xmlns:xlink="http://www.w3.org/1999/xlink" xmlns:sketch="http://www.bohemiancoding.com/sketch/ns">
    <!-- Generator: Sketch 3.4.2 (15857) - http://www.bohemiancoding.com/sketch -->
    <title>logo</title>
    <desc>Created with Sketch.</desc>
    <defs></defs>
    <g id="Page-1" stroke="none" stroke-width="1" fill="none" fill-rule="evenodd" sketch:type="MSPage">
        <g id="Home" sketch:type="MSArtboardGroup" transform="translate(-153.000000, -72.000000)">
            <g id="Top_Bar" sketch:type="MSLayerGroup">
                <g id="logo" transform="translate(153.000000, 72.000000)" sketch:type="MSShapeGroup">
                    <path d="M4.37,44 L4.37,35.996 L7.526,35.996 C8.15000312,35.996 8.72399738,36.091999 9.248,36.284 C9.77200262,36.476001 10.2199981,36.7459983 10.592,37.094 C10.9640019,37.4420017 11.253999,37.8639975 11.462,38.36 C11.670001,38.8560025 11.774,39.403997 11.774,40.004 C11.774,40.604003 11.670001,41.1499975 11.462,41.642 C11.253999,42.1340025 10.9640019,42.5539983 10.592,42.902 C10.2199981,43.2500017 9.77200262,43.519999 9.248,43.712 C8.72399738,43.904001 8.15000312,44 7.526,44 L4.37,44 Z M7.526,42.5 C7.91800196,42.5 8.26999844,42.4340007 8.582,42.302 C8.89400156,42.1699993 9.15799892,41.9900011 9.374,41.762 C9.59000108,41.5339989 9.75399944,41.2680015 9.866,40.964 C9.97800056,40.6599985 10.034,40.3400017 10.034,40.004 C10.034,39.6519982 9.98000054,39.3220015 9.872,39.014 C9.76399946,38.7059985 9.60600104,38.4400011 9.398,38.216 C9.18999896,37.9919989 8.92800158,37.8160006 8.612,37.688 C8.29599842,37.5599994 7.93400204,37.496 7.526,37.496 L6.074,37.496 L6.074,42.5 L7.526,42.5 Z M12.986,44 L12.986,35.996 L16.142,35.996 C16.7660031,35.996 17.3399974,36.091999 17.864,36.284 C18.3880026,36.476001 18.8359981,36.7459983 19.208,37.094 C19.5800019,37.4420017 19.869999,37.8639975 20.078,38.36 C20.286001,38.8560025 20.39,39.403997 20.39,40.004 C20.39,40.604003 20.286001,41.1499975 20.078,41.642 C19.869999,42.1340025 19.5800019,42.5539983 19.208,42.902 C18.8359981,43.2500017 18.3880026,43.519999 17.864,43.712 C17.3399974,43.904001 16.7660031,44 16.142,44 L12.986,44 Z M16.142,42.5 C16.534002,42.5 16.8859984,42.4340007 17.198,42.302 C17.5100016,42.1699993 17.7739989,41.9900011 17.99,41.762 C18.2060011,41.5339989 18.3699994,41.2680015 18.482,40.964 C18.5940006,40.6599985 18.65,40.3400017 18.65,40.004 C18.65,39.6519982 18.5960005,39.3220015 18.488,39.014 C18.3799995,38.7059985 18.222001,38.4400011 18.014,38.216 C17.805999,37.9919989 17.5440016,37.8160006 17.228,37.688 C16.9119984,37.5599994 16.550002,37.496 16.142,37.496 L14.69,37.496 L14.69,42.5 L16.142,42.5 Z M21.602,44 L21.602,35.996 L25.814,35.996 C26.1980019,35.996 26.5339986,36.0519994 26.822,36.164 C27.1100014,36.2760006 27.349999,36.4259991 27.542,36.614 C27.734001,36.8020009 27.8779995,37.0199988 27.974,37.268 C28.0700005,37.5160012 28.118,37.7719987 28.118,38.036 C28.118,38.2920013 28.0820004,38.523999 28.01,38.732 C27.9379996,38.940001 27.8380006,39.1219992 27.71,39.278 C27.5819994,39.4340008 27.4360008,39.5619995 27.272,39.662 C27.1079992,39.7620005 26.930001,39.8319998 26.738,39.872 C26.9540011,39.9040002 27.1539991,39.9779994 27.338,40.094 C27.5220009,40.2100006 27.6839993,40.3539991 27.824,40.526 C27.9640007,40.6980009 28.0739996,40.8979989 28.154,41.126 C28.2340004,41.3540011 28.274,41.5919988 28.274,41.84 C28.274,42.1440015 28.2240005,42.4259987 28.124,42.686 C28.0239995,42.9460013 27.876001,43.173999 27.68,43.37 C27.483999,43.566001 27.2420014,43.7199994 26.954,43.832 C26.6659986,43.9440006 26.3300019,44 25.946,44 L21.602,44 Z M25.442,39.2 C25.7300014,39.2 25.9579992,39.1200008 26.126,38.96 C26.2940008,38.7999992 26.378,38.5920013 26.378,38.336 C26.378,38.0799987 26.2940008,37.8700008 26.126,37.706 C25.9579992,37.5419992 25.7300014,37.46 25.442,37.46 L23.306,37.46 L23.306,39.2 L25.442,39.2 Z M25.502,42.524 C25.8300016,42.524 26.0839991,42.4420008 26.264,42.278 C26.4440009,42.1139992 26.534,41.8880014 26.534,41.6 C26.534,41.3439987 26.4460009,41.1240009 26.27,40.94 C26.0939991,40.7559991 25.8380017,40.664 25.502,40.664 L23.306,40.664 L23.306,42.524 L25.502,42.524 Z M35.366,44.144 C34.6619965,44.144 34.0580025,44.0260012 33.554,43.79 C33.0499975,43.5539988 32.6300017,43.2480019 32.294,42.872 L32.882,42.116 C33.0100006,42.2600007 33.1619991,42.4019993 33.338,42.542 C33.5140009,42.6820007 33.7079989,42.8039995 33.92,42.908 C34.1320011,43.0120005 34.3619988,43.0959997 34.61,43.16 C34.8580012,43.2240003 35.1219986,43.256 35.402,43.256 C35.7620018,43.256 36.0619988,43.2120004 36.302,43.124 C36.5420012,43.0359996 36.7339993,42.9260007 36.878,42.794 C37.0220007,42.6619993 37.1259997,42.5140008 37.19,42.35 C37.2540003,42.1859992 37.286,42.0280008 37.286,41.876 C37.286,41.6199987 37.2180007,41.4080008 37.082,41.24 C36.9459993,41.0719992 36.7680011,40.9300006 36.548,40.814 C36.3279989,40.6979994 36.0760014,40.6020004 35.792,40.526 C35.5079986,40.4499996 35.2160015,40.3700004 34.916,40.286 C34.6159985,40.2019996 34.3240014,40.1080005 34.04,40.004 C33.7559986,39.8999995 33.5040011,39.7660008 33.284,39.602 C33.0639989,39.4379992 32.8860007,39.2360012 32.75,38.996 C32.6139993,38.7559988 32.546,38.4560018 32.546,38.096 C32.546,37.7679984 32.6159993,37.4680014 32.756,37.196 C32.8960007,36.9239986 33.0879988,36.690001 33.332,36.494 C33.5760012,36.297999 33.8659983,36.1460005 34.202,36.038 C34.5380017,35.9299995 34.901998,35.876 35.294,35.876 C35.9100031,35.876 36.4539976,35.971999 36.926,36.164 C37.3980024,36.356001 37.8019983,36.6319982 38.138,36.992 L37.538,37.724 C37.2339985,37.3879983 36.882002,37.1440008 36.482,36.992 C36.081998,36.8399992 35.6620022,36.764 35.222,36.764 C34.7419976,36.764 34.3480015,36.8799988 34.04,37.112 C33.7319985,37.3440012 33.578,37.6519981 33.578,38.036 C33.578,38.2600011 33.6459993,38.4439993 33.782,38.588 C33.9180007,38.7320007 34.0959989,38.8559995 34.316,38.96 C34.5360011,39.0640005 34.7879986,39.1539996 35.072,39.23 C35.3560014,39.3060004 35.6479985,39.3859996 35.948,39.47 C36.2480015,39.5540004 36.5399986,39.6519994 36.824,39.764 C37.1080014,39.8760006 37.3599989,40.0199991 37.58,40.196 C37.8000011,40.3720009 37.9779993,40.5879987 38.114,40.844 C38.2500007,41.1000013 38.318,41.4159981 38.318,41.792 C38.318,42.0800014 38.2660005,42.3659986 38.162,42.65 C38.0579995,42.9340014 37.8880012,43.1859989 37.652,43.406 C37.4159988,43.6260011 37.1100019,43.8039993 36.734,43.94 C36.3579981,44.0760007 35.9020027,44.144 35.366,44.144 L35.366,44.144 Z M43.394,44 L43.394,43.34 C42.9059976,43.8760027 42.266004,44.144 41.474,44.144 C41.2259988,44.144 40.9820012,44.1040004 40.742,44.024 C40.5019988,43.9439996 40.286001,43.8220008 40.094,43.658 C39.901999,43.4939992 39.7460006,43.2920012 39.626,43.052 C39.5059994,42.8119988 39.446,42.5360016 39.446,42.224 C39.446,41.9039984 39.5059994,41.6240012 39.626,41.384 C39.7460006,41.1439988 39.901999,40.9440008 40.094,40.784 C40.286001,40.6239992 40.5019988,40.5060004 40.742,40.43 C40.9820012,40.3539996 41.2259988,40.316 41.474,40.316 C41.874002,40.316 42.2359984,40.3799994 42.56,40.508 C42.8840016,40.6360006 43.1619988,40.8359986 43.394,41.108 L43.394,40.064 C43.394,39.671998 43.2560014,39.3700011 42.98,39.158 C42.7039986,38.9459989 42.3540021,38.84 41.93,38.84 C41.2499966,38.84 40.6580025,39.1079973 40.154,39.644 L39.734,39.02 C40.3500031,38.3799968 41.1219954,38.06 42.05,38.06 C42.3540015,38.06 42.6419986,38.0959996 42.914,38.168 C43.1860014,38.2400004 43.423999,38.3539992 43.628,38.51 C43.832001,38.6660008 43.9939994,38.8679988 44.114,39.116 C44.2340006,39.3640012 44.294,39.6639982 44.294,40.016 L44.294,44 L43.394,44 Z M41.798,43.496 C42.1180016,43.496 42.4199986,43.4360006 42.704,43.316 C42.9880014,43.1959994 43.2179991,43.0160012 43.394,42.776 L43.394,41.684 C43.2179991,41.4439988 42.9880014,41.2640006 42.704,41.144 C42.4199986,41.0239994 42.1180016,40.964 41.798,40.964 C41.3739979,40.964 41.0300013,41.0819988 40.766,41.318 C40.5019987,41.5540012 40.37,41.8599981 40.37,42.236 C40.37,42.6040018 40.5019987,42.9059988 40.766,43.142 C41.0300013,43.3780012 41.3739979,43.496 41.798,43.496 L41.798,43.496 Z M50.006,44 L50.006,40.208 C50.006,39.6959974 49.8880012,39.344001 49.652,39.152 C49.4159988,38.959999 49.102002,38.864 48.71,38.864 C48.5339991,38.864 48.3620008,38.8879998 48.194,38.936 C48.0259992,38.9840002 47.8660008,39.0499996 47.714,39.134 C47.5619992,39.2180004 47.4240006,39.3139995 47.3,39.422 C47.1759994,39.5300005 47.0740004,39.6439994 46.994,39.764 L46.994,44 L46.094,44 L46.094,38.204 L46.994,38.204 L46.994,39.044 C47.0980005,38.9239994 47.2219993,38.8060006 47.366,38.69 C47.5100007,38.5739994 47.6719991,38.4680005 47.852,38.372 C48.0320009,38.2759995 48.223999,38.2000003 48.428,38.144 C48.632001,38.0879997 48.8419989,38.06 49.058,38.06 C50.2900062,38.06 50.906,38.6839938 50.906,39.932 L50.906,44 L50.006,44 Z M55.838,44 L55.838,35.996 L61.082,35.996 L61.082,36.884 L56.834,36.884 L56.834,39.464 L60.998,39.464 L60.998,40.352 L56.834,40.352 L56.834,44 L55.838,44 Z M62.402,44 L62.402,38.204 L63.302,38.204 L63.302,39.14 C63.5340012,38.8359985 63.8139984,38.584001 64.142,38.384 C64.4700016,38.183999 64.833998,38.084 65.234,38.084 L65.234,39.008 C65.1219994,38.9839999 65.0020006,38.972 64.874,38.972 C64.7379993,38.972 64.5920008,38.9979997 64.436,39.05 C64.2799992,39.1020003 64.1280007,39.1719996 63.98,39.26 C63.8319993,39.3480004 63.6980006,39.4459995 63.578,39.554 C63.4579994,39.6620005 63.3660003,39.7759994 63.302,39.896 L63.302,44 L62.402,44 Z M69.986,44 L69.986,43.34 C69.4979976,43.8760027 68.858004,44.144 68.066,44.144 C67.8179988,44.144 67.5740012,44.1040004 67.334,44.024 C67.0939988,43.9439996 66.878001,43.8220008 66.686,43.658 C66.493999,43.4939992 66.3380006,43.2920012 66.218,43.052 C66.0979994,42.8119988 66.038,42.5360016 66.038,42.224 C66.038,41.9039984 66.0979994,41.6240012 66.218,41.384 C66.3380006,41.1439988 66.493999,40.9440008 66.686,40.784 C66.878001,40.6239992 67.0939988,40.5060004 67.334,40.43 C67.5740012,40.3539996 67.8179988,40.316 68.066,40.316 C68.466002,40.316 68.8279984,40.3799994 69.152,40.508 C69.4760016,40.6360006 69.7539988,40.8359986 69.986,41.108 L69.986,40.064 C69.986,39.671998 69.8480014,39.3700011 69.572,39.158 C69.2959986,38.9459989 68.9460021,38.84 68.522,38.84 C67.8419966,38.84 67.2500025,39.1079973 66.746,39.644 L66.326,39.02 C66.9420031,38.3799968 67.7139954,38.06 68.642,38.06 C68.9460015,38.06 69.2339986,38.0959996 69.506,38.168 C69.7780014,38.2400004 70.015999,38.3539992 70.22,38.51 C70.424001,38.6660008 70.5859994,38.8679988 70.706,39.116 C70.8260006,39.3640012 70.886,39.6639982 70.886,40.016 L70.886,44 L69.986,44 Z M68.39,43.496 C68.7100016,43.496 69.0119986,43.4360006 69.296,43.316 C69.5800014,43.1959994 69.8099991,43.0160012 69.986,42.776 L69.986,41.684 C69.8099991,41.4439988 69.5800014,41.2640006 69.296,41.144 C69.0119986,41.0239994 68.7100016,40.964 68.39,40.964 C67.9659979,40.964 67.6220013,41.0819988 67.358,41.318 C67.0939987,41.5540012 66.962,41.8599981 66.962,42.236 C66.962,42.6040018 67.0939987,42.9059988 67.358,43.142 C67.6220013,43.3780012 67.9659979,43.496 68.39,43.496 L68.39,43.496 Z M76.598,44 L76.598,40.208 C76.598,39.6959974 76.4800012,39.344001 76.244,39.152 C76.0079988,38.959999 75.694002,38.864 75.302,38.864 C75.1259991,38.864 74.9540008,38.8879998 74.786,38.936 C74.6179992,38.9840002 74.4580008,39.0499996 74.306,39.134 C74.1539992,39.2180004 74.0160006,39.3139995 73.892,39.422 C73.7679994,39.5300005 73.6660004,39.6439994 73.586,39.764 L73.586,44 L72.686,44 L72.686,38.204 L73.586,38.204 L73.586,39.044 C73.6900005,38.9239994 73.8139993,38.8060006 73.958,38.69 C74.1020007,38.5739994 74.2639991,38.4680005 74.444,38.372 C74.6240009,38.2759995 74.815999,38.2000003 75.02,38.144 C75.224001,38.0879997 75.4339989,38.06 75.65,38.06 C76.8820062,38.06 77.498,38.6839938 77.498,39.932 L77.498,44 L76.598,44 Z M81.854,44.144 C81.4219978,44.144 81.0280018,44.0660008 80.672,43.91 C80.3159982,43.7539992 80.0120013,43.5400014 79.76,43.268 C79.5079987,42.9959986 79.3120007,42.6740019 79.172,42.302 C79.0319993,41.9299981 78.962,41.5280022 78.962,41.096 C78.962,40.6639978 79.0319993,40.2640018 79.172,39.896 C79.3120007,39.5279982 79.5079987,39.2080014 79.76,38.936 C80.0120013,38.6639986 80.3159982,38.4500008 80.672,38.294 C81.0280018,38.1379992 81.4219978,38.06 81.854,38.06 C82.3820026,38.06 82.8119983,38.155999 83.144,38.348 C83.4760017,38.540001 83.7539989,38.7799986 83.978,39.068 L83.378,39.62 C83.185999,39.3559987 82.9680012,39.1640006 82.724,39.044 C82.4799988,38.9239994 82.2060015,38.864 81.902,38.864 C81.5899984,38.864 81.3120012,38.9199994 81.068,39.032 C80.8239988,39.1440006 80.6140009,39.299999 80.438,39.5 C80.2619991,39.700001 80.1280005,39.9359986 80.036,40.208 C79.9439995,40.4800014 79.898,40.7759984 79.898,41.096 C79.898,41.4160016 79.9439995,41.7139986 80.036,41.99 C80.1280005,42.2660014 80.2619991,42.503999 80.438,42.704 C80.6140009,42.904001 80.8239988,43.0599994 81.068,43.172 C81.3120012,43.2840006 81.5899984,43.34 81.902,43.34 C82.510003,43.34 83.0019981,43.0880025 83.378,42.584 L83.978,43.136 C83.7539989,43.4240014 83.4760017,43.663999 83.144,43.856 C82.8119983,44.048001 82.3820026,44.144 81.854,44.144 L81.854,44.144 Z M85.682,37.376 C85.5219992,37.376 85.3820006,37.3180006 85.262,37.202 C85.1419994,37.0859994 85.082,36.9440008 85.082,36.776 C85.082,36.6079992 85.1419994,36.4640006 85.262,36.344 C85.3820006,36.2239994 85.5219992,36.164 85.682,36.164 C85.8500008,36.164 85.9939994,36.2239994 86.114,36.344 C86.2340006,36.4640006 86.294,36.6079992 86.294,36.776 C86.294,36.9440008 86.2340006,37.0859994 86.114,37.202 C85.9939994,37.3180006 85.8500008,37.376 85.682,37.376 L85.682,37.376 Z M85.238,44 L85.238,38.204 L86.138,38.204 L86.138,44 L85.238,44 Z M89.774,44.144 C89.2939976,44.144 88.858002,44.0700007 88.466,43.922 C88.073998,43.7739993 87.7300015,43.5440016 87.434,43.232 L87.902,42.584 C88.094001,42.8080011 88.3599983,43.0019992 88.7,43.166 C89.0400017,43.3300008 89.409998,43.412 89.81,43.412 C90.2580022,43.412 90.5979988,43.3180009 90.83,43.13 C91.0620012,42.9419991 91.178,42.7040014 91.178,42.416 C91.178,42.1839988 91.0900009,42.0060006 90.914,41.882 C90.7379991,41.7579994 90.5160013,41.6560004 90.248,41.576 C89.9799987,41.4959996 89.6920015,41.4220003 89.384,41.354 C89.0759985,41.2859997 88.7880013,41.1900006 88.52,41.066 C88.2519987,40.9419994 88.0300009,40.778001 87.854,40.574 C87.6779991,40.369999 87.59,40.0880018 87.59,39.728 C87.59,39.5039989 87.6379995,39.290001 87.734,39.086 C87.8300005,38.881999 87.9699991,38.7040008 88.154,38.552 C88.3380009,38.3999992 88.5639987,38.2800004 88.832,38.192 C89.1000013,38.1039996 89.4059983,38.06 89.75,38.06 C90.2460025,38.06 90.6699982,38.1419992 91.022,38.306 C91.3740018,38.4700008 91.6659988,38.6679988 91.898,38.9 L91.478,39.524 C91.3019991,39.315999 91.0640015,39.1420007 90.764,39.002 C90.4639985,38.8619993 90.1260019,38.792 89.75,38.792 C89.349998,38.792 89.0360011,38.8799991 88.808,39.056 C88.5799989,39.2320009 88.466,39.4479987 88.466,39.704 C88.466,39.912001 88.5539991,40.0719994 88.73,40.184 C88.9060009,40.2960006 89.1279987,40.3899996 89.396,40.466 C89.6640013,40.5420004 89.9519985,40.6139997 90.26,40.682 C90.5680015,40.7500003 90.8559987,40.8479994 91.124,40.976 C91.3920013,41.1040006 91.6139991,41.2779989 91.79,41.498 C91.9660009,41.7180011 92.054,42.0159981 92.054,42.392 C92.054,42.6320012 92.0060005,42.8599989 91.91,43.076 C91.8139995,43.2920011 91.670001,43.4779992 91.478,43.634 C91.285999,43.7900008 91.0480014,43.9139995 90.764,44.006 C90.4799986,44.0980005 90.1500019,44.144 89.774,44.144 L89.774,44.144 Z M96.074,44.144 C95.6419978,44.144 95.2480018,44.0660008 94.892,43.91 C94.5359982,43.7539992 94.2320013,43.5400014 93.98,43.268 C93.7279987,42.9959986 93.5320007,42.6740019 93.392,42.302 C93.2519993,41.9299981 93.182,41.5280022 93.182,41.096 C93.182,40.6639978 93.2519993,40.2640018 93.392,39.896 C93.5320007,39.5279982 93.7279987,39.2080014 93.98,38.936 C94.2320013,38.6639986 94.5359982,38.4500008 94.892,38.294 C95.2480018,38.1379992 95.6419978,38.06 96.074,38.06 C96.6020026,38.06 97.0319983,38.155999 97.364,38.348 C97.6960017,38.540001 97.9739989,38.7799986 98.198,39.068 L97.598,39.62 C97.405999,39.3559987 97.1880012,39.1640006 96.944,39.044 C96.6999988,38.9239994 96.4260015,38.864 96.122,38.864 C95.8099984,38.864 95.5320012,38.9199994 95.288,39.032 C95.0439988,39.1440006 94.8340009,39.299999 94.658,39.5 C94.4819991,39.700001 94.3480005,39.9359986 94.256,40.208 C94.1639995,40.4800014 94.118,40.7759984 94.118,41.096 C94.118,41.4160016 94.1639995,41.7139986 94.256,41.99 C94.3480005,42.2660014 94.4819991,42.503999 94.658,42.704 C94.8340009,42.904001 95.0439988,43.0599994 95.288,43.172 C95.5320012,43.2840006 95.8099984,43.34 96.122,43.34 C96.730003,43.34 97.2219981,43.0880025 97.598,42.584 L98.198,43.136 C97.9739989,43.4240014 97.6960017,43.663999 97.364,43.856 C97.0319983,44.048001 96.6020026,44.144 96.074,44.144 L96.074,44.144 Z M101.99,44.144 C101.549998,44.144 101.152002,44.0640008 100.796,43.904 C100.439998,43.7439992 100.138001,43.5260014 99.89,43.25 C99.6419988,42.9739986 99.4520007,42.6520018 99.32,42.284 C99.1879993,41.9159982 99.122,41.5200021 99.122,41.096 C99.122,40.6799979 99.1879993,40.2860019 99.32,39.914 C99.4520007,39.5419981 99.6419988,39.2200014 99.89,38.948 C100.138001,38.6759986 100.439998,38.4600008 100.796,38.3 C101.152002,38.1399992 101.549998,38.06 101.99,38.06 C102.430002,38.06 102.827998,38.1399992 103.184,38.3 C103.540002,38.4600008 103.841999,38.6759986 104.09,38.948 C104.338001,39.2200014 104.527999,39.5419981 104.66,39.914 C104.792001,40.2860019 104.858,40.6799979 104.858,41.096 C104.858,41.5200021 104.792001,41.9159982 104.66,42.284 C104.527999,42.6520018 104.338001,42.9739986 104.09,43.25 C103.841999,43.5260014 103.540002,43.7439992 103.184,43.904 C102.827998,44.0640008 102.430002,44.144 101.99,44.144 L101.99,44.144 Z M101.99,43.34 C102.302002,43.34 102.575999,43.2780006 102.812,43.154 C103.048001,43.0299994 103.247999,42.866001 103.412,42.662 C103.576001,42.457999 103.7,42.2200014 103.784,41.948 C103.868,41.6759986 103.91,41.3920015 103.91,41.096 C103.91,40.7999985 103.868,40.5180013 103.784,40.25 C103.7,39.9819987 103.576001,39.746001 103.412,39.542 C103.247999,39.337999 103.048001,39.1740006 102.812,39.05 C102.575999,38.9259994 102.302002,38.864 101.99,38.864 C101.677998,38.864 101.402001,38.9259994 101.162,39.05 C100.921999,39.1740006 100.720001,39.337999 100.556,39.542 C100.391999,39.746001 100.268,39.9819987 100.184,40.25 C100.1,40.5180013 100.058,40.7999985 100.058,41.096 C100.058,41.3920015 100.1,41.6759986 100.184,41.948 C100.268,42.2200014 100.391999,42.457999 100.556,42.662 C100.720001,42.866001 100.921999,43.0299994 101.162,43.154 C101.402001,43.2780006 101.677998,43.34 101.99,43.34 L101.99,43.34 Z" id="DDB-San-Francisco" opacity="0.55" fill="#000000"></path>
                    <g id="Imported-Layers">
                        <path d="M68.2573571,0.3042 C61.2372381,0.3042 55.5465298,6.00535 55.5465298,13.03835 C55.5465298,20.07135 61.2372381,25.7725 68.2573571,25.7725 C75.2774762,25.7725 80.9681845,20.07135 80.9681845,13.03835 C80.9681845,6.00535 75.2774762,0.3042 68.2573571,0.3042 L68.2573571,0.3042 Z M68.2573571,19.90105 C64.4735,19.90105 61.4072262,16.8285 61.4072262,13.03835 C61.4072262,9.2482 64.4735,6.17565 68.2573571,6.17565 C72.0399167,6.17565 75.1074881,9.2482 75.1074881,13.03835 C75.1074881,16.8285 72.0399167,19.90105 68.2573571,19.90105 L68.2573571,19.90105 Z" id="Fill-1" fill="#F9CC4A"></path>
                        <path d="M38.9610119,0.3042 C31.9408929,0.3042 26.2501845,6.00535 26.2501845,13.03835 C26.2501845,20.07135 31.9408929,25.7725 38.9610119,25.7725 C45.981131,25.7725 51.6718393,20.07135 51.6718393,13.03835 C51.6718393,6.00535 45.981131,0.3042 38.9610119,0.3042 L38.9610119,0.3042 Z M38.9610119,19.90105 C35.1771548,19.90105 32.110881,16.8285 32.110881,13.03835 C32.110881,9.2482 35.1771548,6.17565 38.9610119,6.17565 C42.7435714,6.17565 45.8111429,9.2482 45.8111429,13.03835 C45.8111429,16.8285 42.7435714,19.90105 38.9610119,19.90105 L38.9610119,19.90105 Z" id="Fill-2" fill="#2F2D28"></path>
                        <path d="M16.5147976,1.42285 L16.5147976,10.10295 L6.14422619,10.10295 L6.14422619,1.42285 L0.283529762,1.42285 L0.283529762,24.65385 L6.14422619,24.65385 L6.14422619,15.9744 L16.5147976,15.9744 L16.5147976,24.65385 L22.375494,24.65385 L22.375494,1.42285 L16.5147976,1.42285" id="Fill-3" fill="#2F2D28"></path>
                        <path d="M96.3767619,1.01465 L85.0498452,1.014 L85.0498452,25.0627 L96.3767619,25.0627 C103.005649,25.0627 108.379089,19.67875 108.379089,13.03835 C108.379089,6.39795 103.005649,1.01465 96.3767619,1.01465 L96.3767619,1.01465 Z M96.3767619,19.51885 L90.5841905,19.51885 L90.5841905,6.5585 L96.3767619,6.5585 C99.9484583,6.5585 102.845393,9.45945 102.845393,13.03835 C102.845393,16.61725 99.9484583,19.51885 96.3767619,19.51885 L96.3767619,19.51885 Z" id="Fill-4" fill="#2F2D28"></path>
                    </g>
                </g>
            </g>
        </g>
    </g>
</svg>